<svg xmlns="http://www.w3.org/2000/svg" width="336" height="192" viewBox="0 0 336 192" fill="none">
  <g filter="url(#filter0_i_34_83850)">
    <path d="M336 184C336 188.418 332.418 192 328 192H8.88153C3.48441 192 -0.364136 186.765 1.2457 181.614L56.2457 5.6138C57.2894 2.27399 60.3824 0 63.8815 0H328C332.418 0 336 3.58173 336 8V184Z" fill="#1F2128"/>
  </g>
  <path d="M334.5 184C334.5 187.59 331.59 190.5 328 190.5H8.88153C4.49637 190.5 1.36942 186.247 2.67743 182.061L57.6774 6.06122C58.5254 3.34761 61.0385 1.5 63.8815 1.5H328C331.59 1.5 334.5 4.41016 334.5 8V184Z" stroke="#FED863" stroke-width="3"/>
  <defs>
    <filter id="filter0_i_34_83850" x="0.875977" y="0" width="335.124" height="192" filterUnits="userSpaceOnUse" color-interpolation-filters="sRGB">
      <feFlood flood-opacity="0" result="BackgroundImageFix"/>
      <feBlend mode="normal" in="SourceGraphic" in2="BackgroundImageFix" result="shape"/>
      <feColorMatrix in="SourceAlpha" type="matrix" values="0 0 0 0 0 0 0 0 0 0 0 0 0 0 0 0 0 0 127 0" result="hardAlpha"/>
      <feOffset/>
      <feGaussianBlur stdDeviation="13.5"/>
      <feComposite in2="hardAlpha" operator="arithmetic" k2="-1" k3="1"/>
      <feColorMatrix type="matrix" values="0 0 0 0 0.955046 0 0 0 0 0.763831 0 0 0 0 0.175092 0 0 0 0.3 0"/>
      <feBlend mode="normal" in2="shape" result="effect1_innerShadow_34_83850"/>
    </filter>
  </defs>
</svg>