<svg t="1736946274090" class="icon" viewBox="0 0 1293 1024" version="1.1" xmlns="http://www.w3.org/2000/svg" p-id="4271" ><path d="M1068.30848 102.831158A1031.814737 1031.814737 0 0 0 808.104691 21.557895c-11.156211 20.156632-24.252632 47.211789-33.306948 68.769684a961.320421 961.320421 0 0 0-288.336842 0C477.406585 68.769684 464.040691 41.714526 452.722796 21.557895a1028.419368 1028.419368 0 0 0-260.365474 81.434947C27.655006 350.315789-16.969836 591.386947 5.342585 829.062737a1042.701474 1042.701474 0 0 0 319.110737 162.492631c25.707789-35.139368 48.613053-72.488421 68.338526-111.831579a674.061474 674.061474 0 0 1-107.627789-52.062315c9.054316-6.629053 17.893053-13.581474 26.408421-20.749474 207.494737 96.471579 432.990316 96.471579 638.005895 0 8.623158 7.168 17.461895 14.120421 26.408421 20.749474-34.169263 20.48-70.278737 37.941895-107.843369 52.170105 19.725474 39.235368 42.576842 76.692211 68.338527 111.831579a1040.599579 1040.599579 0 0 0 319.326315-162.600421c26.138947-275.509895-44.732632-514.425263-187.499789-726.231579zM421.032691 682.846316c-62.248421 0-113.340632-57.775158-113.340632-128.161684s50.014316-128.269474 113.394526-128.269474c63.380211 0 114.472421 57.775158 113.394527 128.269474 0.053895 70.386526-50.014316 128.161684-113.394527 128.161684z m419.031578 0c-62.302316 0-113.394526-57.775158-113.394526-128.161684s50.014316-128.269474 113.394526-128.269474c63.380211 0 114.472421 57.775158 113.394527 128.269474 0 70.386526-50.014316 128.161684-113.394527 128.161684z" fill="#FFFFFF" p-id="4272"></path></svg>