<svg xmlns="http://www.w3.org/2000/svg" width="14" height="14" viewBox="0 0 14 14" fill="none">
  <path fill-rule="evenodd" clip-rule="evenodd" d="M0 7C0 3.13401 3.13401 0 7 0C10.866 0 14 3.13401 14 7C14 10.866 10.866 14 7 14C3.13401 14 0 10.866 0 7ZM5.858 4.17602C5.72393 3.46097 6.27249 2.8 7 2.8C7.72751 2.8 8.27607 3.46097 8.142 4.17602L7.4145 8.05599C7.3771 8.25546 7.20294 8.4 7 8.4C6.79706 8.4 6.6229 8.25546 6.5855 8.05599L5.858 4.17602ZM7 10.9998C7.3866 10.9998 7.7 10.6864 7.7 10.2998C7.7 9.91324 7.3866 9.59983 7 9.59983C6.6134 9.59983 6.3 9.91324 6.3 10.2998C6.3 10.6864 6.6134 10.9998 7 10.9998Z" fill="#121318"/>
</svg>