<svg xmlns="http://www.w3.org/2000/svg" width="46" height="46" viewBox="0 0 46 46" fill="none">
  <g clip-path="url(#clip0_33_21427)">
    <path d="M15.9344 9.24516C15.9066 9.24055 15.883 9.24207 15.8553 9.23746L15.8981 9.1369L15.9344 9.24516ZM38.8143 22.436C38.8062 22.4237 38.7936 22.4126 38.7872 22.3975L38.8586 22.3856L38.8143 22.436ZM16.2344 10.9221C16.4367 11.0389 16.5729 11.2238 16.6327 11.4293C16.6364 11.4428 16.6408 11.4416 16.6446 11.4285L19.0423 18.8315L27.8317 13.0194C28.1689 12.8761 28.5628 12.8909 28.9046 13.0882C29.3033 13.3184 29.5208 13.744 29.5083 14.1734L28.8819 24.5124L36.7352 22.8342C36.8779 22.8369 37.023 22.8751 37.1568 22.9523C37.5698 23.1908 37.7089 23.7192 37.4722 24.1293C37.4524 24.1635 37.4483 24.1839 37.4597 24.1904L28.9709 35.2037C28.9972 35.1582 29.0264 35.1143 29.06 35.0691C28.4831 35.8448 27.5241 36.2101 26.605 36.0592C26.6881 36.073 26.768 36.0925 26.8372 36.1173C24.8869 35.7925 21.5436 32.4342 17.9379 30.3069C14.3135 28.1726 11.3689 27.8208 10.1094 26.2468C10.1626 26.2927 10.2154 26.346 10.269 26.4111C9.68034 25.6877 9.51721 24.6746 9.9005 23.7871C9.85599 23.8905 9.80337 23.9816 9.74999 24.0609L15.0186 11.272C15.0276 11.2696 15.0431 11.2558 15.0579 11.2301C15.2914 10.8257 15.8187 10.6821 16.2344 10.9221Z" fill="#FED863"/>
  </g>
  <defs>
    <clipPath id="clip0_33_21427">
      <rect width="33.6744" height="33.6745" fill="white" transform="matrix(-0.866024 -0.500002 -0.499998 0.866026 46 16.8374)"/>
    </clipPath>
  </defs>
</svg>