<svg xmlns="http://www.w3.org/2000/svg" width="20" height="20" viewBox="0 0 20 20" fill="none">
  <g clip-path="url(#clip0_81_121073)">
    <path d="M12.2332 2.3795C12.2332 3.4176 11.3918 4.259 10.3537 4.259C9.31574 4.259 8.47424 3.4176 8.47424 2.3795C8.47434 1.3414 9.31574 0.5 10.3537 0.5C11.3917 0.5 12.2332 1.3415 12.2332 2.3795ZM10.3537 16.289C9.44544 16.289 8.70924 17.0253 8.70924 17.9335C8.70924 18.8417 9.44554 19.578 10.3537 19.578C11.2619 19.578 11.9982 18.8417 11.9982 17.9335C11.9982 17.0253 11.262 16.289 10.3537 16.289ZM18.1308 11.3312C17.482 11.3312 16.9561 10.8054 16.9561 10.1565C16.9561 9.5077 17.482 8.9818 18.1308 8.9818C18.7797 8.9818 19.3055 9.5077 19.3055 10.1565C19.3054 10.8053 18.7795 11.3312 18.1308 11.3312ZM4.45614 10.1565C4.45614 9.1185 3.61474 8.277 2.57664 8.277C1.53864 8.277 0.697144 9.1184 0.697144 10.1565C0.697144 11.1945 1.53854 12.036 2.57664 12.036C3.61474 12.036 4.45614 11.1945 4.45614 10.1565ZM6.18364 3.3284C6.91764 4.0624 6.91764 5.2524 6.18364 5.9863C5.44964 6.7203 4.25964 6.7203 3.52564 5.9863C2.79164 5.2523 2.79164 4.0623 3.52564 3.3283C4.25964 2.5943 5.44964 2.5943 6.18364 3.3284ZM14.8562 14.659C14.3057 15.2095 14.3057 16.102 14.8561 16.6525C15.4066 17.203 16.2991 17.203 16.8496 16.6525C17.4001 16.102 17.4001 15.2095 16.8496 14.659C16.2992 14.1084 15.4067 14.1084 14.8562 14.659ZM16.5175 5.3218C16.1505 5.6888 15.5554 5.6888 15.1886 5.3218C14.8215 4.9547 14.8215 4.3597 15.1886 3.9928C15.2759 3.90551 15.3795 3.83627 15.4935 3.78902C15.6075 3.74178 15.7297 3.71746 15.8531 3.71746C15.9765 3.71746 16.0987 3.74178 16.2127 3.78902C16.3267 3.83627 16.4303 3.90551 16.5175 3.9928C16.8845 4.3598 16.8845 4.9549 16.5175 5.3218ZM6.18364 14.3267C5.44964 13.5927 4.25964 13.5927 3.52564 14.3267C2.79164 15.0607 2.79164 16.2507 3.52564 16.9846C4.25964 17.7186 5.44964 17.7186 6.18354 16.9846C6.91754 16.2507 6.91754 15.0607 6.18364 14.3267Z" fill="white"/>
  </g>
  <defs>
    <clipPath id="clip0_81_121073">
      <rect width="20" height="20" fill="white"/>
    </clipPath>
  </defs>
</svg>