<svg xmlns="http://www.w3.org/2000/svg" width="112" height="112" viewBox="0 0 112 112" fill="none">
  <g clip-path="url(#clip0_84_121710)">
    <g filter="url(#filter0_ddi_84_121710)">
      <path d="M17.5126 32.1376C17.429 31.5364 17.8961 31 18.5031 31H31.5195C32.0431 31 32.4781 31.404 32.5168 31.9262L35.0935 66.7661C35.1169 67.0823 35.5509 67.1508 35.6705 66.8572L49.7742 32.2453C50.081 31.4923 50.8132 31 51.6263 31H62.5006C63.2141 31 63.6981 31.7258 63.4237 32.3845L43.6838 79.7804C43.5285 80.1531 43.1644 80.3959 42.7606 80.3959H25.0897C24.5906 80.3959 24.1679 80.0279 24.0992 79.5335L17.5126 32.1376ZM91.2067 45.5656C91.7327 45.8414 92.3877 45.621 92.629 45.0784L97.2129 34.7711C97.4551 34.2265 97.1781 33.5993 96.6032 33.4414C92.1749 32.2253 75.081 28.2216 67.4899 36.4896C58.0941 46.7188 62.7503 56.2188 68.8649 59.8125C74.9691 63.4063 83.167 65.1667 78.4691 70.7917C76.8154 72.7655 66.8524 68.2663 63.2371 65.2931C62.6963 64.8483 61.5772 64.9946 61.3144 65.6437C59.9456 69.0243 57.7613 74.5271 56.8939 76.7155C56.6883 77.234 56.9476 77.8151 57.4751 77.9962C61.7408 79.4607 79.231 84.8676 87.7816 78.3021C97.3858 70.9271 97.0524 60.125 91.5733 55.3334C86.7087 51.0833 73.0941 47.9375 77.1045 43.3646C79.9545 40.0854 88.3433 44.0642 91.2067 45.5656Z" fill="url(#paint0_linear_84_121710)"/>
      <path d="M92.2316 54.5806L92.2312 54.5803C90.9121 53.4278 89.0483 52.3865 87.1492 51.4218C86.3651 51.0234 85.5816 50.6412 84.8114 50.2654C83.6583 49.7028 82.5352 49.1549 81.4847 48.5895C79.7236 47.6417 78.4211 46.7708 77.7759 45.9488C77.47 45.5591 77.3744 45.2577 77.3753 45.0213C77.3761 44.7938 77.4669 44.468 77.8564 44.024L77.8593 44.0206C78.3289 43.4803 79.0809 43.1692 80.1601 43.1126C81.2408 43.0559 82.5294 43.264 83.8856 43.6367C86.5925 44.3804 89.3301 45.7108 90.7423 46.4513C91.7688 46.9895 93.0616 46.5665 93.5427 45.4847L92.629 45.0784L93.5427 45.4847L98.1266 35.1775C98.6036 34.105 98.0657 32.8061 96.8681 32.4772C94.6207 31.86 89.149 30.5311 83.2533 30.4092C77.4076 30.2883 70.853 31.3479 66.7533 35.8133C61.884 41.1146 60.5568 46.3538 61.3775 50.8201C62.1905 55.2443 65.0837 58.7499 68.3576 60.6743C69.7349 61.4851 71.2147 62.2045 72.5946 62.8752C72.7861 62.9683 72.9757 63.0605 73.1628 63.1518C74.7268 63.9152 76.1019 64.6137 77.1358 65.3536C78.1857 66.1049 78.7013 66.7728 78.8284 67.4054C78.9466 67.9942 78.7827 68.8547 77.7052 70.1463C77.6991 70.1514 77.6206 70.2165 77.3522 70.2533C77.0481 70.2951 76.6156 70.2828 76.0539 70.1953C74.9355 70.0209 73.5002 69.5801 71.9576 68.968C68.8643 67.7405 65.5721 65.9186 63.8723 64.5207C63.3192 64.0659 62.5869 63.9771 62.0103 64.0713C61.4428 64.164 60.7002 64.4959 60.3875 65.2684C59.0171 68.653 56.8315 74.1592 55.9642 76.347C55.5536 77.3829 56.07 78.5711 57.1504 78.942C59.3117 79.684 64.8269 81.4271 70.9028 82.1533C76.9153 82.872 83.7811 82.6346 88.3906 79.0953L87.7816 78.3021L88.3907 79.0953C98.375 71.4283 98.2936 59.882 92.2316 54.5806ZM18.5031 30C17.289 30 16.355 31.0728 16.5221 32.2753L23.1088 79.6712C23.2462 80.6599 24.0915 81.3959 25.0897 81.3959H42.7606C43.5682 81.3959 44.2964 80.9103 44.6069 80.1648L64.3469 32.769C64.8955 31.4516 63.9276 30 62.5006 30H51.6263C50.4066 30 49.3083 30.7384 48.8481 31.8679L35.8706 63.716L33.514 31.8525C33.4368 30.808 32.5668 30 31.5195 30H18.5031Z" stroke="#121318" stroke-width="2"/>
    </g>
  </g>
  <defs>
    <filter id="filter0_ddi_84_121710" x="1.50244" y="15" width="111.796" height="82.4808" filterUnits="userSpaceOnUse" color-interpolation-filters="sRGB">
      <feFlood flood-opacity="0" result="BackgroundImageFix"/>
      <feColorMatrix in="SourceAlpha" type="matrix" values="0 0 0 0 0 0 0 0 0 0 0 0 0 0 0 0 0 0 127 0" result="hardAlpha"/>
      <feOffset/>
      <feGaussianBlur stdDeviation="7"/>
      <feComposite in2="hardAlpha" operator="out"/>
      <feColorMatrix type="matrix" values="0 0 0 0 0.9625 0 0 0 0 0.97075 0 0 0 0 1 0 0 0 0.5 0"/>
      <feBlend mode="normal" in2="BackgroundImageFix" result="effect1_dropShadow_84_121710"/>
      <feColorMatrix in="SourceAlpha" type="matrix" values="0 0 0 0 0 0 0 0 0 0 0 0 0 0 0 0 0 0 127 0" result="hardAlpha"/>
      <feOffset dy="4.34568"/>
      <feGaussianBlur stdDeviation="0.54321"/>
      <feComposite in2="hardAlpha" operator="out"/>
      <feColorMatrix type="matrix" values="0 0 0 0 0.0705882 0 0 0 0 0.0745098 0 0 0 0 0.0941176 0 0 0 1 0"/>
      <feBlend mode="normal" in2="effect1_dropShadow_84_121710" result="effect2_dropShadow_84_121710"/>
      <feBlend mode="normal" in="SourceGraphic" in2="effect2_dropShadow_84_121710" result="shape"/>
      <feColorMatrix in="SourceAlpha" type="matrix" values="0 0 0 0 0 0 0 0 0 0 0 0 0 0 0 0 0 0 127 0" result="hardAlpha"/>
      <feOffset dx="0.54321" dy="0.54321"/>
      <feGaussianBlur stdDeviation="0.271605"/>
      <feComposite in2="hardAlpha" operator="arithmetic" k2="-1" k3="1"/>
      <feColorMatrix type="matrix" values="0 0 0 0 0.844404 0 0 0 0 0.867289 0 0 0 0 0.896712 0 0 0 1 0"/>
      <feBlend mode="normal" in2="shape" result="effect3_innerShadow_84_121710"/>
    </filter>
    <linearGradient id="paint0_linear_84_121710" x1="23.5002" y1="28" x2="26.5092" y2="72.9696" gradientUnits="userSpaceOnUse">
      <stop stop-color="#F5FAFF"/>
      <stop offset="0.494792" stop-color="#C0C9D4"/>
      <stop offset="1" stop-color="#9BA4AF"/>
    </linearGradient>
    <clipPath id="clip0_84_121710">
      <rect width="112" height="112" fill="white"/>
    </clipPath>
  </defs>
</svg>