<svg width="336" height="196" viewBox="0 0 336 196" fill="none" xmlns="http://www.w3.org/2000/svg">
<g filter="url(#filter0_i_84_121654)">
<path d="M0 8C0 3.58172 3.58172 0 8 0H327.185C332.562 0 336.408 5.19961 334.834 10.3417L279.732 190.342C278.703 193.704 275.599 196 272.083 196H8.00001C3.58173 196 0 192.418 0 188V8Z" fill="#1F2128"/>
</g>
<path d="M1.5 8C1.5 4.41015 4.41015 1.5 8 1.5H327.185C331.554 1.5 334.679 5.72469 333.4 9.90264L278.298 189.903C277.462 192.634 274.94 194.5 272.083 194.5H8.00001C4.41015 194.5 1.5 191.59 1.5 188V8Z" stroke="#FED863" stroke-width="3"/>
<defs>
<filter id="filter0_i_84_121654" x="0" y="0" width="335.19" height="196" filterUnits="userSpaceOnUse" color-interpolation-filters="sRGB">
<feFlood flood-opacity="0" result="BackgroundImageFix"/>
<feBlend mode="normal" in="SourceGraphic" in2="BackgroundImageFix" result="shape"/>
<feColorMatrix in="SourceAlpha" type="matrix" values="0 0 0 0 0 0 0 0 0 0 0 0 0 0 0 0 0 0 127 0" result="hardAlpha"/>
<feOffset/>
<feGaussianBlur stdDeviation="13.5"/>
<feComposite in2="hardAlpha" operator="arithmetic" k2="-1" k3="1"/>
<feColorMatrix type="matrix" values="0 0 0 0 0.955046 0 0 0 0 0.763831 0 0 0 0 0.175092 0 0 0 0.3 0"/>
<feBlend mode="normal" in2="shape" result="effect1_innerShadow_84_121654"/>
</filter>
</defs>
</svg>
