<svg xmlns="http://www.w3.org/2000/svg" width="336" height="192" viewBox="0 0 336 192" fill="none">
  <g filter="url(#filter0_i_34_83853)">
    <path d="M0 8C0 3.58173 3.58172 0 8 0H327.118C332.516 0 336.364 5.23475 334.754 10.3862L279.754 186.386C278.711 189.726 275.618 192 272.118 192H8.00001C3.58173 192 0 188.418 0 184V8Z" fill="#1F2128"/>
  </g>
  <path d="M1.5 8C1.5 4.41015 4.41015 1.5 8 1.5H327.118C331.504 1.5 334.631 5.75324 333.323 9.93878L278.323 185.939C277.475 188.652 274.961 190.5 272.118 190.5H8.00001C4.41015 190.5 1.5 187.59 1.5 184V8Z" stroke="#9DFF85" stroke-width="3"/>
  <defs>
    <filter id="filter0_i_34_83853" x="0" y="0" width="335.124" height="192" filterUnits="userSpaceOnUse" color-interpolation-filters="sRGB">
      <feFlood flood-opacity="0" result="BackgroundImageFix"/>
      <feBlend mode="normal" in="SourceGraphic" in2="BackgroundImageFix" result="shape"/>
      <feColorMatrix in="SourceAlpha" type="matrix" values="0 0 0 0 0 0 0 0 0 0 0 0 0 0 0 0 0 0 127 0" result="hardAlpha"/>
      <feOffset/>
      <feGaussianBlur stdDeviation="13.5"/>
      <feComposite in2="hardAlpha" operator="arithmetic" k2="-1" k3="1"/>
      <feColorMatrix type="matrix" values="0 0 0 0 0.427451 0 0 0 0 0.733333 0 0 0 0 0.360784 0 0 0 0.3 0"/>
      <feBlend mode="normal" in2="shape" result="effect1_innerShadow_34_83853"/>
    </filter>
  </defs>
</svg>